<mxfile host="app.diagrams.net" modified="2023-12-23T21:31:19.647Z" agent="Mozilla/5.0 (Windows NT 10.0; Win64; x64) AppleWebKit/537.36 (KHTML, like Gecko) Chrome/120.0.0.0 Safari/537.36" etag="1zZJqN5CRezanUzwGtCy" version="22.1.11" type="device">
  <diagram name="Sayfa -1" id="OWNPSbNczxubT2wxFu2F">
    <mxGraphModel dx="820" dy="798" grid="1" gridSize="10" guides="1" tooltips="1" connect="1" arrows="1" fold="1" page="1" pageScale="1" pageWidth="827" pageHeight="1169" math="0" shadow="0">
      <root>
        <mxCell id="0" />
        <mxCell id="1" parent="0" />
        <mxCell id="4W4WK4PxUnj94pRylOEr-16" style="edgeStyle=orthogonalEdgeStyle;rounded=0;orthogonalLoop=1;jettySize=auto;html=1;exitX=0.5;exitY=1;exitDx=0;exitDy=0;entryX=0.5;entryY=0;entryDx=0;entryDy=0;" edge="1" parent="1" source="4W4WK4PxUnj94pRylOEr-1" target="4W4WK4PxUnj94pRylOEr-2">
          <mxGeometry relative="1" as="geometry" />
        </mxCell>
        <mxCell id="4W4WK4PxUnj94pRylOEr-1" value="Başla" style="ellipse;whiteSpace=wrap;html=1;" vertex="1" parent="1">
          <mxGeometry x="354" y="10" width="120" height="50" as="geometry" />
        </mxCell>
        <mxCell id="4W4WK4PxUnj94pRylOEr-15" style="edgeStyle=orthogonalEdgeStyle;rounded=0;orthogonalLoop=1;jettySize=auto;html=1;exitX=0.5;exitY=1;exitDx=0;exitDy=0;entryX=0.5;entryY=0;entryDx=0;entryDy=0;" edge="1" parent="1" source="4W4WK4PxUnj94pRylOEr-2" target="4W4WK4PxUnj94pRylOEr-3">
          <mxGeometry relative="1" as="geometry" />
        </mxCell>
        <mxCell id="4W4WK4PxUnj94pRylOEr-2" value="let sayi = 1&lt;br&gt;let toplam = 0&lt;br&gt;let count = 0" style="rounded=0;whiteSpace=wrap;html=1;" vertex="1" parent="1">
          <mxGeometry x="340" y="80" width="146" height="60" as="geometry" />
        </mxCell>
        <mxCell id="4W4WK4PxUnj94pRylOEr-14" style="edgeStyle=orthogonalEdgeStyle;rounded=0;orthogonalLoop=1;jettySize=auto;html=1;exitX=0.5;exitY=1;exitDx=0;exitDy=0;entryX=0.5;entryY=0;entryDx=0;entryDy=0;" edge="1" parent="1" source="4W4WK4PxUnj94pRylOEr-3" target="4W4WK4PxUnj94pRylOEr-4">
          <mxGeometry relative="1" as="geometry" />
        </mxCell>
        <mxCell id="4W4WK4PxUnj94pRylOEr-20" style="edgeStyle=orthogonalEdgeStyle;rounded=0;orthogonalLoop=1;jettySize=auto;html=1;exitX=0;exitY=0.5;exitDx=0;exitDy=0;entryX=1;entryY=0.5;entryDx=0;entryDy=0;" edge="1" parent="1" source="4W4WK4PxUnj94pRylOEr-3" target="4W4WK4PxUnj94pRylOEr-17">
          <mxGeometry relative="1" as="geometry" />
        </mxCell>
        <mxCell id="4W4WK4PxUnj94pRylOEr-3" value="sayi &amp;gt; 0" style="shape=hexagon;perimeter=hexagonPerimeter2;whiteSpace=wrap;html=1;fixedSize=1;" vertex="1" parent="1">
          <mxGeometry x="354" y="170" width="120" height="80" as="geometry" />
        </mxCell>
        <mxCell id="4W4WK4PxUnj94pRylOEr-8" style="edgeStyle=orthogonalEdgeStyle;rounded=0;orthogonalLoop=1;jettySize=auto;html=1;exitX=0.5;exitY=1;exitDx=0;exitDy=0;entryX=0.5;entryY=0;entryDx=0;entryDy=0;" edge="1" parent="1" source="4W4WK4PxUnj94pRylOEr-4" target="4W4WK4PxUnj94pRylOEr-5">
          <mxGeometry relative="1" as="geometry" />
        </mxCell>
        <mxCell id="4W4WK4PxUnj94pRylOEr-4" value="sayi" style="shape=parallelogram;perimeter=parallelogramPerimeter;whiteSpace=wrap;html=1;fixedSize=1;" vertex="1" parent="1">
          <mxGeometry x="353" y="280" width="120" height="60" as="geometry" />
        </mxCell>
        <mxCell id="4W4WK4PxUnj94pRylOEr-6" style="edgeStyle=orthogonalEdgeStyle;rounded=0;orthogonalLoop=1;jettySize=auto;html=1;exitX=1;exitY=0.5;exitDx=0;exitDy=0;entryX=1;entryY=0.5;entryDx=0;entryDy=0;" edge="1" parent="1" source="4W4WK4PxUnj94pRylOEr-5" target="4W4WK4PxUnj94pRylOEr-3">
          <mxGeometry relative="1" as="geometry" />
        </mxCell>
        <mxCell id="4W4WK4PxUnj94pRylOEr-7" value="false" style="edgeLabel;html=1;align=center;verticalAlign=middle;resizable=0;points=[];" vertex="1" connectable="0" parent="4W4WK4PxUnj94pRylOEr-6">
          <mxGeometry x="0.4636" y="1" relative="1" as="geometry">
            <mxPoint as="offset" />
          </mxGeometry>
        </mxCell>
        <mxCell id="4W4WK4PxUnj94pRylOEr-10" style="edgeStyle=orthogonalEdgeStyle;rounded=0;orthogonalLoop=1;jettySize=auto;html=1;exitX=1;exitY=0.5;exitDx=0;exitDy=0;entryX=0;entryY=0.5;entryDx=0;entryDy=0;" edge="1" parent="1" source="4W4WK4PxUnj94pRylOEr-5" target="4W4WK4PxUnj94pRylOEr-9">
          <mxGeometry relative="1" as="geometry" />
        </mxCell>
        <mxCell id="4W4WK4PxUnj94pRylOEr-11" value="true" style="edgeLabel;html=1;align=center;verticalAlign=middle;resizable=0;points=[];" vertex="1" connectable="0" parent="4W4WK4PxUnj94pRylOEr-10">
          <mxGeometry x="0.4483" y="-3" relative="1" as="geometry">
            <mxPoint y="-3" as="offset" />
          </mxGeometry>
        </mxCell>
        <mxCell id="4W4WK4PxUnj94pRylOEr-5" value="sayi &amp;gt; 0" style="rhombus;whiteSpace=wrap;html=1;" vertex="1" parent="1">
          <mxGeometry x="373" y="370" width="80" height="80" as="geometry" />
        </mxCell>
        <mxCell id="4W4WK4PxUnj94pRylOEr-13" style="edgeStyle=orthogonalEdgeStyle;rounded=0;orthogonalLoop=1;jettySize=auto;html=1;exitX=0.5;exitY=0;exitDx=0;exitDy=0;entryX=1;entryY=0.5;entryDx=0;entryDy=0;" edge="1" parent="1" source="4W4WK4PxUnj94pRylOEr-9" target="4W4WK4PxUnj94pRylOEr-3">
          <mxGeometry relative="1" as="geometry" />
        </mxCell>
        <mxCell id="4W4WK4PxUnj94pRylOEr-9" value="toplam += sayi&lt;br&gt;count++" style="rounded=0;whiteSpace=wrap;html=1;" vertex="1" parent="1">
          <mxGeometry x="540" y="380" width="120" height="60" as="geometry" />
        </mxCell>
        <mxCell id="4W4WK4PxUnj94pRylOEr-21" style="edgeStyle=orthogonalEdgeStyle;rounded=0;orthogonalLoop=1;jettySize=auto;html=1;exitX=0.5;exitY=1;exitDx=0;exitDy=0;entryX=0.5;entryY=0;entryDx=0;entryDy=0;" edge="1" parent="1" source="4W4WK4PxUnj94pRylOEr-17" target="4W4WK4PxUnj94pRylOEr-18">
          <mxGeometry relative="1" as="geometry" />
        </mxCell>
        <mxCell id="4W4WK4PxUnj94pRylOEr-17" value="toplam /= count" style="rounded=0;whiteSpace=wrap;html=1;" vertex="1" parent="1">
          <mxGeometry x="180" y="180" width="120" height="60" as="geometry" />
        </mxCell>
        <mxCell id="4W4WK4PxUnj94pRylOEr-22" style="edgeStyle=orthogonalEdgeStyle;rounded=0;orthogonalLoop=1;jettySize=auto;html=1;entryX=0.5;entryY=0;entryDx=0;entryDy=0;" edge="1" parent="1" source="4W4WK4PxUnj94pRylOEr-18" target="4W4WK4PxUnj94pRylOEr-19">
          <mxGeometry relative="1" as="geometry" />
        </mxCell>
        <mxCell id="4W4WK4PxUnj94pRylOEr-18" value="toplam" style="shape=document;whiteSpace=wrap;html=1;boundedLbl=1;" vertex="1" parent="1">
          <mxGeometry x="180" y="270" width="120" height="80" as="geometry" />
        </mxCell>
        <mxCell id="4W4WK4PxUnj94pRylOEr-19" value="Bitiş" style="ellipse;whiteSpace=wrap;html=1;" vertex="1" parent="1">
          <mxGeometry x="180" y="385" width="120" height="50" as="geometry" />
        </mxCell>
      </root>
    </mxGraphModel>
  </diagram>
</mxfile>
